<?xml version="1.0" encoding="iso-8859-1"?>
<!-- Generator: Adobe Illustrator 19.1.0, SVG Export Plug-In . SVG Version: 6.00 Build 0)  -->
<svg version="1.1" id="Capa_1" xmlns="http://www.w3.org/2000/svg" xmlns:xlink="http://www.w3.org/1999/xlink" x="0px" y="0px"
	 viewBox="0 0 30.598 30.598" style="enable-background:new 0 0 30.598 30.598;" xml:space="preserve">
<g>
	<g>
		<path style="fill:#fff" d="M4.593,30.598c-0.132,0-0.263-0.029-0.384-0.088c-0.301-0.146-0.491-0.453-0.491-0.787V0.876
			c0-0.336,0.19-0.641,0.491-0.787C4.508-0.058,4.867-0.021,5.13,0.186l18.498,14.428c0.213,0.166,0.337,0.42,0.337,0.689
			c0,0.269-0.124,0.523-0.337,0.689L5.13,30.415C4.973,30.536,4.784,30.598,4.593,30.598z M5.467,2.667v25.268l16.2-12.631
			L5.467,2.667z"/>
	</g>
	<g>
		<path style="fill:#fff" d="M26.005,30.598c-0.482,0-0.875-0.391-0.875-0.875V0.876c0-0.484,0.393-0.875,0.875-0.875
			c0.483,0,0.875,0.391,0.875,0.875v28.848C26.88,30.208,26.489,30.598,26.005,30.598z"/>
	</g>
</g>
<g>
</g>
<g>
</g>
<g>
</g>
<g>
</g>
<g>
</g>
<g>
</g>
<g>
</g>
<g>
</g>
<g>
</g>
<g>
</g>
<g>
</g>
<g>
</g>
<g>
</g>
<g>
</g>
<g>
</g>
</svg>
