<svg  width="30px" height="30px" viewBox="0 0 30 30" version="1.1" xmlns="http://www.w3.org/2000/svg" xmlns:xlink="http://www.w3.org/1999/xlink"> <g class="next_btn" stroke="none" stroke-width="1" fill="#fff" fill-rule="nonezero"> <g id="next_fill" class="player_btn_fill" fill="#3A3B46"> <path d="M16.713416,15.818825 L16.7124638,14.2912476 L8.35405776,21.363745 L10,22.1271313 L10,8 L8.35501003,8.76419104 L16.713416,15.818825 Z M8,8 L8,22.1271313 C8,22.9784928 8.99602459,23.4404479 9.64594224,22.8905176 L18.0043483,15.8180202 C18.4768108,15.4182442 18.4763566,14.6896295 18.003396,14.2904429 L9.64498997,7.23580896 C8.99483417,6.68706663 8,7.14922347 8,8 Z" id="triangle"></path> <path d="M19,22.5 C19,23.0522847 19.4477153,23.5 20,23.5 C20.5522847,23.5 21,23.0522847 21,22.5 L21,7.5 C21,6.94771525 20.5522847,6.5 20,6.5 C19.4477153,6.5 19,6.94771525 19,7.5 L19,22.5 Z" id="line"></path> </g> </g> </svg>