<?xml version="1.0" encoding="iso-8859-1"?>
<!-- Generator: Adobe Illustrator 19.0.0, SVG Export Plug-In . SVG Version: 6.00 Build 0)  -->
<svg version="1.1" id="Capa_1" xmlns="http://www.w3.org/2000/svg" xmlns:xlink="http://www.w3.org/1999/xlink" x="0px" y="0px"
	 viewBox="0 0 420 420" style="enable-background:new 0 0 420 420;" xml:space="preserve">
<g>
	<path d="M210,21c104.216,0,189,84.784,189,189s-84.784,189-189,189S21,314.216,21,210S105.784,21,210,21 M210,0
		C94.031,0,0,94.024,0,210s94.031,210,210,210s210-94.024,210-210S325.969,0,210,0L210,0z"/>
	<path d="M332.962,298.886c-0.455-5.775-5.523-10.08-11.291-9.632l-14.882,1.19c42.448-51.142,38.031-127.316-11.361-172.928
		c-51.037-47.138-130.914-43.96-178.059,7.091c-47.131,51.037-43.953,130.914,7.091,178.052
		c21.252,19.621,48.853,31.409,77.707,33.187c5.789,0.357,10.766-4.046,11.123-9.835c0.364-5.782-4.039-10.78-9.835-11.123
		c-24.031-1.477-47.033-11.298-64.743-27.657c-42.546-39.284-45.185-105.84-5.901-148.379
		c39.277-42.539,105.833-45.192,148.372-5.901c40.691,37.576,44.772,100.065,10.675,142.653l-0.007-13.874
		c0-5.789-4.704-10.5-10.493-10.493c-5.81,0-10.507,4.711-10.5,10.5v41.272c-0.007,2.926,1.232,5.719,3.374,7.707
		c2.149,1.988,5.04,2.989,7.959,2.758l41.132-3.276C329.112,309.729,333.431,304.668,332.962,298.886z"/>
</g>
<g>
</g>
<g>
</g>
<g>
</g>
<g>
</g>
<g>
</g>
<g>
</g>
<g>
</g>
<g>
</g>
<g>
</g>
<g>
</g>
<g>
</g>
<g>
</g>
<g>
</g>
<g>
</g>
<g>
</g>
</svg>
